<svg width="40" height="40" viewBox="0 0 40 40" fill="none" xmlns="http://www.w3.org/2000/svg">
<path d="M30.2652 6.86C29.7969 6.86 29.3392 6.99886 28.9498 7.25901C28.5605 7.51916 28.257 7.88892 28.0778 8.32153C27.8986 8.75414 27.8518 9.23018 27.9431 9.68944C28.0345 10.1487 28.26 10.5706 28.5911 10.9017C28.9222 11.2328 29.344 11.4583 29.8033 11.5496C30.2625 11.641 30.7386 11.5941 31.1712 11.4149C31.6038 11.2357 31.9736 10.9322 32.2337 10.5429C32.4939 10.1536 32.6327 9.69581 32.6327 9.22755C32.6327 8.59964 32.3833 7.99744 31.9393 7.55344C31.4953 7.10944 30.8931 6.86 30.2652 6.86V6.86ZM39.3408 11.6346C39.3024 9.99759 38.9958 8.378 38.4332 6.84027C37.9316 5.52457 37.1508 4.33319 36.1446 3.34814C35.1676 2.33685 33.9735 1.56099 32.6524 1.07924C31.1188 0.499505 29.4974 0.185901 27.8582 0.151947C25.7668 0.0335692 25.096 0.0335693 19.7296 0.0335693C14.3631 0.0335693 13.6923 0.0335692 11.601 0.151947C9.96176 0.185901 8.34037 0.499505 6.8067 1.07924C5.48813 1.56586 4.295 2.34106 3.31457 3.34814C2.30328 4.3251 1.52742 5.51926 1.04567 6.84027C0.465935 8.37394 0.152332 9.99533 0.118377 11.6346C-1.10248e-07 13.7259 0 14.3967 0 19.7631C0 25.1296 -1.10248e-07 25.8004 0.118377 27.8917C0.152332 29.531 0.465935 31.1524 1.04567 32.686C1.52742 34.007 2.30328 35.2012 3.31457 36.1782C4.295 37.1852 5.48813 37.9604 6.8067 38.4471C8.34037 39.0268 9.96176 39.3404 11.601 39.3743C13.6923 39.4927 14.3631 39.4927 19.7296 39.4927C25.096 39.4927 25.7668 39.4927 27.8582 39.3743C29.4974 39.3404 31.1188 39.0268 32.6524 38.4471C33.9735 37.9653 35.1676 37.1894 36.1446 36.1782C37.1552 35.1968 37.9367 34.0043 38.4332 32.686C38.9958 31.1483 39.3024 29.5287 39.3408 27.8917C39.3408 25.8004 39.4592 25.1296 39.4592 19.7631C39.4592 14.3967 39.4592 13.7259 39.3408 11.6346V11.6346ZM35.7894 27.655C35.7751 28.9074 35.5483 30.1482 35.1186 31.3247C34.8036 32.1833 34.2977 32.9591 33.6389 33.5936C32.999 34.2457 32.2248 34.7506 31.37 35.0733C30.1936 35.5029 28.9527 35.7297 27.7003 35.7441C25.7274 35.8428 24.9974 35.8625 19.8085 35.8625C14.6196 35.8625 13.8896 35.8625 11.9167 35.7441C10.6163 35.7685 9.32143 35.5682 8.08913 35.1522C7.27189 34.813 6.53316 34.3093 5.91887 33.6725C5.26403 33.0387 4.76438 32.2622 4.45888 31.4036C3.9772 30.2103 3.71004 28.9412 3.6697 27.655C3.6697 25.682 3.55132 24.952 3.55132 19.7631C3.55132 14.5743 3.55132 13.8443 3.6697 11.8713C3.67854 10.591 3.91228 9.32215 4.36024 8.1227C4.70757 7.28993 5.2407 6.5476 5.91887 5.95244C6.51828 5.27408 7.25908 4.73532 8.08913 4.37408C9.29174 3.94011 10.5593 3.71329 11.8377 3.70327C13.8107 3.70327 14.5407 3.58489 19.7296 3.58489C24.9185 3.58489 25.6484 3.58489 27.6214 3.70327C28.8738 3.71763 30.1146 3.94446 31.2911 4.37408C32.1877 4.70682 32.9924 5.24779 33.6389 5.95244C34.2855 6.55849 34.7907 7.29944 35.1186 8.1227C35.5571 9.3241 35.7841 10.5924 35.7894 11.8713C35.8881 13.8443 35.9078 14.5743 35.9078 19.7631C35.9078 24.952 35.8881 25.682 35.7894 27.655ZM19.7296 9.64187C17.7286 9.64577 15.7737 10.2427 14.1119 11.3572C12.45 12.4717 11.1558 14.0538 10.3928 15.9036C9.62979 17.7533 9.43217 19.7877 9.82492 21.7498C10.2177 23.7118 11.1832 25.5134 12.5995 26.9269C14.0157 28.3404 15.8192 29.3024 17.782 29.6914C19.7448 30.0803 21.7788 29.8787 23.6271 29.1121C25.4754 28.3454 27.0549 27.0482 28.1662 25.3842C29.2775 23.7202 29.8706 21.7641 29.8706 19.7631C29.8732 18.4316 29.6125 17.1127 29.1036 15.8823C28.5946 14.6518 27.8474 13.5341 26.905 12.5935C25.9625 11.6529 24.8434 10.9079 23.612 10.4013C22.3805 9.89477 21.0611 9.63667 19.7296 9.64187V9.64187ZM19.7296 26.3331C18.4302 26.3331 17.1599 25.9478 16.0795 25.2259C14.9991 24.5039 14.157 23.4779 13.6597 22.2774C13.1625 21.0769 13.0324 19.7559 13.2859 18.4814C13.5394 17.207 14.1651 16.0363 15.0839 15.1175C16.0027 14.1987 17.1734 13.5729 18.4478 13.3194C19.7223 13.0659 21.0433 13.196 22.2438 13.6933C23.4443 14.1906 24.4704 15.0327 25.1923 16.1131C25.9142 17.1935 26.2995 18.4637 26.2995 19.7631C26.2995 20.6259 26.1296 21.4803 25.7994 22.2774C25.4692 23.0745 24.9853 23.7987 24.3752 24.4088C23.7652 25.0189 23.0409 25.5028 22.2438 25.833C21.4467 26.1632 20.5924 26.3331 19.7296 26.3331V26.3331Z" fill="#FDFCFA"/>
</svg>
