<svg width="40" height="40" viewBox="0 0 40 40" fill="none" xmlns="http://www.w3.org/2000/svg">
<path d="M36.5497 0.0336011H3.12779C2.75209 0.0283833 2.37905 0.097224 2.02997 0.236192C1.68088 0.37516 1.36259 0.581532 1.09327 0.843524C0.823948 1.10552 0.608875 1.41799 0.460332 1.76311C0.311789 2.10823 0.232685 2.47924 0.227539 2.85493V36.6714C0.232685 37.0471 0.311789 37.4181 0.460332 37.7632C0.608875 38.1084 0.823948 38.4208 1.09327 38.6828C1.36259 38.9448 1.68088 39.1512 2.02997 39.2902C2.37905 39.4291 2.75209 39.498 3.12779 39.4928H36.5497C36.9254 39.498 37.2984 39.4291 37.6475 39.2902C37.9966 39.1512 38.3149 38.9448 38.5842 38.6828C38.8535 38.4208 39.0686 38.1084 39.2171 37.7632C39.3657 37.4181 39.4448 37.0471 39.4499 36.6714V2.85493C39.4448 2.47924 39.3657 2.10823 39.2171 1.76311C39.0686 1.41799 38.8535 1.10552 38.5842 0.843524C38.3149 0.581532 37.9966 0.37516 37.6475 0.236192C37.2984 0.097224 36.9254 0.0283833 36.5497 0.0336011ZM12.1245 33.0609H6.2056V15.3043H12.1245V33.0609ZM9.16504 12.8184C8.34875 12.8184 7.5659 12.4941 6.98869 11.9169C6.41149 11.3397 6.08722 10.5568 6.08722 9.74055C6.08722 8.92427 6.41149 8.14141 6.98869 7.56421C7.5659 6.98701 8.34875 6.66274 9.16504 6.66274C9.59849 6.61358 10.0374 6.65653 10.4531 6.78878C10.8688 6.92102 11.2519 7.13958 11.5773 7.43014C11.9027 7.72071 12.163 8.07672 12.3412 8.47486C12.5195 8.87302 12.6116 9.30433 12.6116 9.74055C12.6116 10.1768 12.5195 10.6081 12.3412 11.0062C12.163 11.4044 11.9027 11.7604 11.5773 12.051C11.2519 12.3415 10.8688 12.5601 10.4531 12.6923C10.0374 12.8246 9.59849 12.8675 9.16504 12.8184ZM33.4719 33.0609H27.553V23.5315C27.553 21.1443 26.7046 19.5856 24.5541 19.5856C23.8886 19.5905 23.2405 19.7992 22.6972 20.1838C22.154 20.5683 21.7416 21.1101 21.5158 21.7361C21.3614 22.1999 21.2945 22.6882 21.3185 23.1764V33.0412H15.3996C15.3996 33.0412 15.3996 16.9024 15.3996 15.2846H21.3185V17.7902C21.8561 16.8572 22.6382 16.0886 23.5803 15.5671C24.5225 15.0456 25.5891 14.791 26.6652 14.8308C30.6111 14.8308 33.4719 17.3759 33.4719 22.841V33.0609Z" fill="#FDFCFA"/>
</svg>
