<svg width="140" height="72" viewBox="0 0 140 72" fill="none" xmlns="http://www.w3.org/2000/svg">
<path d="M131.582 25.6064L131.581 25.6059L94.7539 4.37629C94.7537 4.37615 94.7533 4.37591 94.753 4.37577C91.9708 2.76979 88.6648 2.33486 85.5618 3.1664C82.4585 3.99802 79.8127 6.02836 78.2064 8.81074C76.6001 11.5931 76.1649 14.8996 76.9965 18.0029C77.8281 21.1062 79.8584 23.752 82.6408 25.3583L82.6417 25.3588L119.468 46.5884C119.469 46.5885 119.469 46.5887 119.469 46.5889C122.251 48.1948 125.558 48.6298 128.661 47.7983C131.764 46.9667 134.41 44.9363 136.016 42.1539C137.622 39.3715 138.058 36.065 137.226 32.9618C136.394 29.8585 134.364 27.2127 131.582 25.6064Z" fill="#0F9D58" stroke="#FDFDFF" stroke-width="3.27812"/>
<path d="M102.485 36.3627L101.666 35.8897L100.847 36.3627L82.6819 46.8477L82.6818 46.8478C81.3041 47.6431 80.0965 48.7021 79.1281 49.9641C78.1596 51.2262 77.4492 52.6666 77.0375 54.2032C76.6257 55.7397 76.5206 57.3424 76.7282 58.9196C76.9358 60.4968 77.452 62.0177 78.2474 63.3954C79.0428 64.7731 80.1017 65.9806 81.3637 66.9491L82.3187 65.7046L81.3637 66.9491C82.6258 67.9175 84.0662 68.6279 85.6028 69.0397C87.1394 69.4515 88.742 69.5566 90.3192 69.349C91.8964 69.1414 93.4173 68.6251 94.795 67.8298L124.365 50.7591L128.424 48.4164L123.79 47.7188C122.333 47.4994 120.929 47.009 119.653 46.2731L102.485 36.3627Z" fill="#FBBC04" stroke="#FDFDFF" stroke-width="3.27812"/>
<path d="M63.0302 54.2461C62.2285 51.2546 60.3131 48.6883 57.6838 47.0684L57.6435 47.0147L57.3528 46.847L20.5252 25.6062L20.5252 25.6062L20.5224 25.6046C19.1416 24.8118 17.6182 24.2987 16.0391 24.0947C14.46 23.8907 12.8562 23.9996 11.3192 24.4154C9.78224 24.8312 8.34224 25.5457 7.08141 26.518C5.82059 27.4902 4.76357 28.7013 3.97077 30.0822C3.17798 31.4629 2.66492 32.9864 2.46089 34.5655C2.25686 36.1445 2.36587 37.7484 2.78166 39.2854C3.19744 40.8223 3.91188 42.2623 4.88418 43.5231C5.85613 44.7835 7.06675 45.8402 8.44694 46.6329C8.44743 46.6332 8.44792 46.6335 8.44841 46.6338L45.2727 67.8727C45.2729 67.8728 45.2731 67.8729 45.2732 67.873C48.0555 69.479 51.3618 69.9141 54.4649 69.0826C57.5681 68.251 60.2139 66.2207 61.8203 63.4383C63.4266 60.6559 63.8618 57.3493 63.0302 54.2461Z" fill="#4285F4" stroke="#FDFDFF" stroke-width="3.27812"/>
<path d="M20.3641 25.9228L20.3644 25.923L37.5542 35.8015L38.3727 36.2718L39.1903 35.7999L57.3063 25.343C58.78 24.6178 60.0911 23.6004 61.1596 22.3524C62.2413 21.089 63.0512 19.6165 63.5389 18.0265C64.0266 16.4365 64.1818 14.7631 63.9945 13.1105C63.8073 11.4579 63.2817 9.8617 62.4507 8.42114C61.6196 6.98057 60.5008 5.7265 59.1639 4.73716C57.827 3.74782 56.3007 3.04443 54.6802 2.67072C53.0596 2.29701 51.3794 2.26101 49.7443 2.56498C48.1289 2.86529 46.5916 3.49104 45.226 4.40401L15.704 21.4468L11.6731 23.7738L16.2726 24.486C17.7132 24.7091 19.1003 25.1962 20.3641 25.9228Z" fill="#EA4335" stroke="#FDFDFF" stroke-width="3.27812"/>
</svg>
