<svg width="54" height="38" viewBox="0 0 54 38" fill="none" xmlns="http://www.w3.org/2000/svg">
<path d="M53.5869 13.2692C53.7059 9.8242 52.9526 6.40502 51.3967 3.32909C50.3411 2.06696 48.8761 1.21523 47.257 0.922297C40.5602 0.314642 33.8356 0.0655843 27.1122 0.176191C20.4132 0.0605641 13.7128 0.301585 7.0395 0.898229C5.72015 1.13823 4.49917 1.75707 3.52558 2.67926C1.35947 4.6769 1.11879 8.09455 0.878109 10.9827C0.528912 16.1755 0.528912 21.3859 0.878109 26.5787C0.947737 28.2043 1.18977 29.8179 1.60015 31.3923C1.89035 32.6079 2.47748 33.7326 3.30897 34.6656C4.28918 35.6366 5.53859 36.2906 6.8951 36.5429C12.0839 37.1833 17.3122 37.4488 22.5393 37.3371C30.963 37.4574 38.3519 37.3371 47.0886 36.6632C48.4784 36.4265 49.763 35.7716 50.771 34.7859C51.4448 34.1118 51.9481 33.2867 52.2391 32.3791C53.0998 29.7379 53.5226 26.9737 53.4906 24.196C53.5869 22.8482 53.5869 14.7132 53.5869 13.2692ZM21.6728 25.6401V10.742L35.921 18.2272C31.9258 20.4414 26.6549 22.9445 21.6728 25.6401Z" fill="#FDFCFA"/>
</svg>
